<?xml version="1.0" standalone="no"?>
<!DOCTYPE svg PUBLIC "-//W3C//DTD SVG 20010904//EN"
 "http://www.w3.org/TR/2001/REC-SVG-20010904/DTD/svg10.dtd">
<svg version="1.0" xmlns="http://www.w3.org/2000/svg"
 width="1283.000000pt" height="863.000000pt" viewBox="0 0 1283.000000 863.000000"
 preserveAspectRatio="xMidYMid meet">
<metadata>
Created by potrace 1.15, written by Peter Selinger 2001-2017
</metadata>
<g transform="translate(0.000000,863.000000) scale(0.100000,-0.100000)"
fill="#000000" stroke="none">
<path d="M0 8536 l0 -94 123 -6 c230 -13 368 -48 583 -150 172 -82 268 -161
476 -395 l128 -145 -3 -2495 c-4 -2711 -1 -2562 -57 -2743 -48 -157 -189 -276
-388 -330 -62 -17 -117 -22 -284 -25 l-208 -5 0 -99 0 -99 1165 0 1165 0 0 99
0 99 -212 5 c-236 5 -313 19 -433 78 -126 62 -202 151 -240 283 -51 175 -48
54 -52 2450 l-3 2228 23 -28 c14 -16 997 -1217 2187 -2669 l2162 -2640 99 -3
99 -3 3 2993 c2 2815 3 2999 20 3088 35 186 61 244 147 329 131 129 311 181
633 181 l137 0 0 95 0 95 -1165 0 -1165 0 0 -95 0 -95 133 0 c314 -1 496 -49
626 -166 84 -76 123 -162 158 -354 16 -88 18 -247 20 -2184 l3 -2088 -187 230
c-104 127 -1016 1248 -2028 2491 l-1840 2260 -912 1 -913 0 0 -94z"/>
<path d="M7570 8537 l0 -94 198 -5 c226 -6 305 -21 427 -77 234 -110 297 -240
325 -671 8 -113 10 -903 8 -2520 -4 -2157 -5 -2364 -21 -2467 -31 -204 -65
-279 -169 -379 -71 -69 -151 -113 -260 -145 -62 -18 -106 -22 -290 -26 l-218
-5 0 -99 0 -99 1435 0 1435 0 0 99 0 99 -222 5 c-251 5 -313 17 -442 85 -128
67 -205 163 -241 303 -48 182 -48 166 -52 1382 -2 631 -2 1147 0 1147 3 0 47
-9 98 -19 371 -76 652 -105 1009 -105 319 0 436 10 660 60 564 126 984 443
1225 924 201 402 240 978 96 1410 -78 230 -219 449 -421 650 -330 329 -735
512 -1305 589 -320 44 -331 44 -1827 48 l-1448 4 0 -94z m2820 -343 c110 -18
299 -78 391 -125 309 -155 525 -422 649 -799 118 -357 123 -783 15 -1115 -104
-319 -345 -607 -634 -758 -297 -155 -556 -165 -1258 -46 l-73 12 0 1382 0
1382 103 21 c346 72 569 85 807 46z"/>
<path d="M4388 1370 c-166 -30 -307 -115 -405 -245 -99 -131 -134 -243 -134
-435 0 -224 55 -364 196 -505 127 -127 254 -179 440 -178 184 0 317 55 446
183 134 133 199 302 199 513 0 51 -7 124 -15 162 -45 217 -229 422 -435 486
-73 23 -221 32 -292 19z m167 -81 c82 -15 144 -49 198 -109 56 -62 90 -129
119 -235 29 -109 33 -414 5 -515 -29 -107 -71 -182 -137 -243 -76 -71 -148
-100 -250 -101 -111 -1 -171 23 -246 98 -98 98 -147 223 -164 417 -26 309 67
569 237 658 29 15 122 40 154 40 14 1 52 -4 84 -10z"/>
<path d="M7265 1374 c-122 -20 -222 -63 -320 -137 -111 -84 -199 -227 -236
-385 -30 -123 -23 -302 15 -418 67 -206 225 -358 426 -410 102 -27 275 -23
371 8 128 42 228 122 314 252 36 54 38 58 21 74 -16 16 -19 15 -48 -23 -56
-71 -154 -162 -199 -186 -137 -70 -305 -65 -451 13 -110 58 -193 180 -224 331
-20 93 -14 343 10 432 25 93 84 204 135 255 90 90 229 133 356 112 169 -28
279 -127 345 -309 17 -47 28 -63 41 -63 23 0 23 -4 4 255 -8 110 -15 201 -15
203 0 1 -9 2 -19 2 -12 0 -26 -14 -38 -37 -27 -55 -44 -61 -100 -39 -142 55
-185 66 -270 70 -48 2 -101 2 -118 0z"/>
<path d="M12075 1371 c-276 -46 -495 -256 -561 -539 -24 -103 -15 -295 18
-389 48 -136 162 -274 282 -344 207 -120 556 -126 792 -15 l72 34 4 254 c3
214 6 258 20 284 18 32 60 54 104 54 19 0 24 5 24 25 l0 25 -255 0 -255 0 0
-24 c0 -21 6 -24 50 -30 108 -14 118 -45 119 -357 l1 -197 -35 -16 c-103 -49
-222 -67 -314 -47 -121 26 -244 115 -310 225 -18 31 -47 95 -64 143 -26 76
-31 106 -35 218 -5 161 11 247 69 363 90 183 248 275 446 258 113 -9 177 -38
253 -115 50 -50 74 -85 100 -143 29 -65 39 -78 58 -78 20 0 22 4 18 33 -3 17
-10 102 -16 187 -14 191 -15 200 -40 200 -14 0 -21 -9 -26 -35 -10 -56 -26
-57 -157 -13 -96 32 -136 40 -215 43 -53 2 -119 0 -147 -4z"/>
<path d="M90 1326 c0 -24 3 -26 48 -26 56 0 108 -28 122 -66 16 -40 13 -1063
-3 -1094 -16 -33 -72 -60 -124 -60 -39 0 -43 -2 -43 -25 l0 -25 285 0 285 0 0
25 c0 23 -4 25 -47 25 -66 0 -115 26 -130 70 -8 23 -12 114 -12 263 l-1 228
65 -3 65 -3 218 -300 218 -300 177 -3 177 -2 0 25 c0 15 -6 25 -14 25 -8 0
-44 9 -82 21 -57 18 -77 30 -129 82 -33 34 -119 143 -190 242 -71 99 -140 194
-153 212 l-23 32 43 11 c65 18 155 69 190 109 17 19 42 59 55 89 22 46 24 64
21 140 -4 96 -18 135 -73 199 -41 48 -131 97 -205 113 -32 7 -198 14 -397 17
l-343 5 0 -26z m624 -78 c25 -8 61 -32 93 -63 89 -86 106 -206 46 -317 -49
-91 -150 -143 -298 -154 l-85 -7 0 271 0 271 28 4 c60 9 177 6 216 -5z"/>
<path d="M1410 1326 c0 -22 5 -24 60 -28 49 -4 66 -9 88 -31 l27 -27 3 -530
c3 -593 3 -588 -62 -615 -20 -8 -54 -15 -76 -15 -36 0 -40 -2 -40 -25 l0 -25
504 0 503 0 57 163 c31 90 56 166 56 170 0 4 -11 7 -24 7 -18 0 -32 -14 -61
-64 -21 -36 -55 -83 -77 -105 -71 -74 -77 -76 -321 -79 -196 -3 -221 -2 -238
14 -18 16 -19 34 -19 281 l0 263 168 0 c92 0 183 -5 203 -10 52 -14 81 -51 94
-118 9 -47 15 -58 33 -60 l22 -3 0 230 c0 224 -1 231 -20 231 -13 0 -21 -9
-25 -27 -31 -149 -57 -163 -312 -163 l-163 0 0 256 0 256 228 -4 c244 -4 260
-8 311 -62 13 -14 31 -53 41 -88 13 -50 21 -64 38 -66 20 -3 22 1 22 56 0 32
-3 100 -6 150 l-7 92 -503 0 -504 0 0 -24z"/>
<path d="M2637 1268 c-4 -46 -7 -118 -7 -160 0 -70 2 -78 19 -78 16 0 22 11
31 54 14 66 55 127 103 149 24 12 76 19 167 23 l132 7 -4 -549 c-2 -430 -6
-554 -16 -572 -21 -37 -72 -62 -124 -62 -44 0 -48 -2 -48 -25 l0 -25 280 0
280 0 0 25 c0 23 -4 25 -42 25 -62 0 -110 27 -125 70 -9 25 -12 184 -12 574
l-1 539 124 -6 c125 -6 180 -20 219 -55 27 -24 55 -83 63 -131 6 -35 10 -41
30 -41 l24 0 -6 138 c-3 75 -7 147 -10 160 l-4 22 -534 0 -533 0 -6 -82z"/>
<path d="M5210 1325 c0 -23 4 -25 48 -25 64 0 108 -28 121 -77 6 -22 12 -210
15 -438 3 -230 9 -421 15 -449 18 -79 56 -152 109 -205 93 -93 191 -125 387
-125 181 0 278 30 372 117 125 115 143 205 143 730 0 374 2 390 62 427 19 12
51 20 76 20 38 0 42 2 42 25 l0 25 -235 0 -235 0 0 -25 c0 -23 3 -25 53 -25
69 0 112 -26 126 -77 14 -49 14 -723 1 -816 -20 -140 -73 -211 -199 -270 -57
-27 -79 -32 -166 -35 -125 -5 -192 17 -259 83 -86 86 -98 174 -94 670 3 406 3
401 64 430 18 8 53 15 78 15 42 0 46 2 46 25 l0 25 -285 0 -285 0 0 -25z"/>
<path d="M7960 1325 c0 -23 4 -25 40 -25 52 0 103 -21 124 -51 14 -21 16 -80
16 -554 0 -404 -3 -536 -13 -555 -16 -33 -72 -60 -124 -60 -39 0 -43 -2 -43
-25 l0 -25 285 0 285 0 0 25 c0 22 -4 25 -40 25 -22 0 -58 7 -81 17 -65 26
-69 43 -69 323 l0 240 295 0 295 0 0 -247 c0 -178 -4 -255 -13 -273 -16 -33
-72 -60 -124 -60 -39 0 -43 -2 -43 -25 l0 -25 285 0 285 0 0 25 c0 22 -4 25
-40 25 -63 0 -120 28 -136 66 -21 51 -20 1039 1 1090 17 41 63 64 130 64 41 0
45 2 45 25 l0 25 -285 0 -285 0 0 -25 c0 -23 4 -25 40 -25 52 0 103 -21 124
-51 14 -20 16 -58 16 -266 l0 -243 -295 0 -295 0 0 230 c0 264 6 291 64 315
20 8 56 15 81 15 41 0 45 2 45 25 l0 25 -285 0 -285 0 0 -25z"/>
<path d="M9400 1326 c0 -21 5 -24 53 -28 67 -5 112 -35 121 -79 12 -61 6
-1031 -7 -1069 -15 -43 -63 -70 -124 -70 -39 0 -43 -2 -43 -25 l0 -25 280 0
280 0 0 25 c0 23 -4 25 -40 25 -52 0 -103 21 -124 51 -14 21 -16 79 -16 551 0
318 4 537 10 552 14 38 66 66 123 66 43 0 47 2 47 25 l0 25 -280 0 -280 0 0
-24z"/>
<path d="M9980 1325 c0 -22 4 -25 38 -25 51 -1 119 -33 170 -83 l42 -41 0
-506 c0 -383 -3 -511 -13 -530 -16 -33 -72 -60 -124 -60 -39 0 -43 -2 -43 -25
l0 -25 230 0 230 0 0 25 c0 23 -4 25 -42 25 -24 0 -59 8 -78 18 -59 29 -61 42
-58 519 l3 425 423 -516 c291 -356 429 -516 442 -516 19 0 19 16 22 603 2 490
6 607 17 629 18 35 67 58 125 58 42 0 46 2 46 25 l0 25 -235 0 -235 0 0 -25
c0 -23 4 -25 48 -25 26 0 63 -8 82 -18 57 -28 60 -58 57 -506 l-2 -390 -391
480 -390 479 -182 3 -182 2 0 -25z"/>
</g>
</svg>
